<svg width="1841" height="562" viewBox="0 0 1841 562" fill="none" xmlns="http://www.w3.org/2000/svg">
<g clip-path="url(#clip0_413_2)">
<path d="M122.06 372.02C104.91 372.02 88.91 368.93 74.05 362.74C59.18 356.55 46.22 347.93 35.15 336.86C24.08 325.79 15.46 312.88 9.26999 298.13C3.08999 283.38 -0.0100098 267.43 -0.0100098 250.28C-0.0100098 233.13 3.07999 217.19 9.26999 202.43C15.45 187.68 24.08 174.76 35.15 163.7C46.22 152.63 59.18 144.01 74.05 137.82C88.91 131.64 104.92 128.54 122.06 128.54C134.43 128.54 145.82 130 156.24 132.93C166.66 135.86 176.26 140.15 185.05 145.79C193.84 151.44 201.92 158.38 209.3 166.62L178.38 196.57C173.82 191.15 168.78 186.48 163.24 182.57C157.71 178.66 151.57 175.63 144.85 173.46C138.12 171.29 130.63 170.21 122.39 170.21C107.85 170.21 94.67 173.52 82.84 180.14C71.01 186.76 61.63 196.04 54.68 207.97C47.73 219.91 44.26 234.01 44.26 250.28C44.26 266.55 47.73 280.39 54.68 292.43C61.62 304.47 71.01 313.81 82.84 320.42C94.67 327.04 107.85 330.35 122.39 330.35C135.41 330.35 146.97 327.64 157.06 322.21C167.15 316.79 176.1 309.3 183.91 299.75L215.16 329.37C207.56 338.48 198.99 346.24 189.45 352.64C179.9 359.04 169.48 363.87 158.2 367.13C146.91 370.39 134.87 372.01 122.07 372.01L122.06 372.02Z" fill="#4285F4"/>
<path d="M279.93 372.02C268.21 372.02 257.85 369.68 248.84 365.02C239.83 360.36 232.73 353.79 227.52 345.33C222.31 336.87 219.71 327.1 219.71 316.03C219.71 304.96 222.69 294.66 228.66 286.41C234.63 278.17 242.66 271.76 252.75 267.21C262.84 262.65 274.07 260.38 286.44 260.38C293.16 260.38 299.3 260.76 304.83 261.52C310.36 262.28 315.3 263.2 319.64 264.29C323.98 265.38 327.56 266.57 330.38 267.87V260.71C330.38 251.81 327.01 244.49 320.29 238.74C313.56 232.99 304.34 230.11 292.62 230.11C284.81 230.11 277.27 231.9 270 235.48C262.73 239.06 256.71 243.78 251.93 249.64L224.59 228.16C230.01 221.22 236.31 215.3 243.47 210.42C250.63 205.54 258.55 201.85 267.23 199.35C275.91 196.86 285.02 195.61 294.57 195.61C319.96 195.61 339.27 201.47 352.51 213.19C365.74 224.91 372.37 242.05 372.37 264.62V366.83H330.38V349.9H327.78C324.74 353.81 320.94 357.44 316.39 360.8C311.83 364.17 306.51 366.87 300.44 368.94C294.36 371 287.53 372.03 279.93 372.03V372.02ZM290.02 338.81C298.7 338.81 306.02 336.91 311.99 333.11C317.96 329.32 322.51 324.38 325.66 318.3C328.8 312.23 330.38 305.83 330.38 299.1C325.6 296.72 320.18 294.82 314.11 293.4C308.03 291.99 301.85 291.28 295.56 291.28C282.97 291.28 274.29 293.67 269.52 298.44C264.74 303.22 262.36 309.08 262.36 316.02C262.36 322.53 264.69 327.96 269.36 332.29C274.02 336.63 280.92 338.8 290.03 338.8L290.02 338.81Z" fill="#4285F4"/>
<path d="M398.08 366.81V200.81H438.12V221.64H440.72C444.19 216.43 448.42 211.87 453.41 207.97C458.4 204.06 464.1 201.03 470.5 198.86C476.9 196.69 483.79 195.6 491.17 195.6C503.32 195.6 513.68 198.42 522.25 204.06C530.82 209.71 536.84 216.65 540.32 224.89C545.31 216.86 552.41 209.97 561.64 204.22C570.86 198.47 582.31 195.59 595.98 195.59C615.29 195.59 629.78 201.45 639.44 213.17C649.09 224.89 653.92 240.51 653.92 260.04V366.8H611.61V267.85C611.61 257.22 609.11 249.13 604.12 243.6C599.13 238.07 592.4 235.3 583.94 235.3C576.56 235.3 570.11 237.31 564.57 241.32C559.04 245.34 554.81 250.92 551.88 258.08C548.95 265.24 547.49 273.6 547.49 283.14V366.79H504.85V267.84C504.85 257.21 502.3 249.12 497.2 243.59C492.1 238.06 484.88 235.29 475.56 235.29C468.61 235.29 462.48 237.3 457.17 241.31C451.85 245.33 447.78 250.91 444.96 258.07C442.14 265.23 440.73 273.59 440.73 283.13V366.78H398.09L398.08 366.81Z" fill="#4285F4"/>
<path d="M680.61 437.11V200.8H720.65V220.98H723.25C726.07 216.64 729.81 212.52 734.48 208.61C739.14 204.7 744.73 201.56 751.24 199.17C757.75 196.78 765.02 195.59 773.05 195.59C788.24 195.59 801.86 199.33 813.9 206.82C825.94 214.31 835.49 224.67 842.54 237.9C849.59 251.14 853.12 266.44 853.12 283.8C853.12 301.16 849.59 316.46 842.54 329.7C835.49 342.94 825.94 353.3 813.9 360.78C801.86 368.27 788.24 372.01 773.05 372.01C761.11 372.01 750.86 369.46 742.29 364.36C733.71 359.26 727.37 353.46 723.25 346.95H720.65L723.25 370.39V437.12H680.61V437.11ZM765.57 332.63C773.59 332.63 781.03 330.63 787.87 326.61C794.71 322.6 800.24 316.9 804.47 309.52C808.7 302.15 810.82 293.57 810.82 283.81C810.82 274.05 808.7 265.26 804.47 258.1C800.24 250.94 794.71 245.36 787.87 241.34C781.03 237.33 773.6 235.32 765.57 235.32C757.54 235.32 750.43 237.33 743.6 241.34C736.76 245.36 731.23 251 727 258.27C722.77 265.54 720.65 274.06 720.65 283.82C720.65 293.58 722.77 302.1 727 309.37C731.23 316.64 736.77 322.34 743.6 326.46C750.44 330.58 757.76 332.64 765.57 332.64V332.63Z" fill="#4285F4"/>
<path d="M931.89 372.02C911.49 372.02 896.19 365.73 886 353.14C875.8 340.56 870.7 323.41 870.7 301.71V200.81H913.34V296.51C913.34 307.8 916.11 316.64 921.64 323.04C927.17 329.44 934.28 332.64 942.96 332.64C951.64 332.64 958.58 330.53 964.44 326.29C970.3 322.06 974.8 316.36 977.95 309.2C981.09 302.04 982.67 294.12 982.67 285.44V200.81H1025.31V366.81H985.27V345.98H982.67C979.41 351.19 975.18 355.74 969.98 359.65C964.77 363.56 958.96 366.6 952.57 368.76C946.17 370.93 939.28 372.02 931.9 372.02H931.89Z" fill="#4285F4"/>
<path d="M1116.45 372.02C1102.13 372.02 1089.92 369.96 1079.83 365.83C1069.74 361.71 1061.55 356.28 1055.26 349.56C1048.96 342.84 1044.3 335.46 1041.26 327.43L1079.34 310.83C1083.03 318.64 1088.02 324.56 1094.31 328.57C1100.6 332.59 1107.98 334.59 1116.44 334.59C1123.38 334.59 1129.67 333.45 1135.32 331.17C1140.96 328.89 1143.78 324.72 1143.78 318.64C1143.78 314.3 1142.31 310.88 1139.39 308.39C1136.46 305.9 1132.82 303.95 1128.49 302.53C1124.15 301.12 1119.7 299.98 1115.15 299.11L1095.62 294.88C1087.59 293.15 1080 290.05 1072.84 285.6C1065.68 281.16 1059.87 275.51 1055.42 268.67C1050.97 261.83 1048.75 253.97 1048.75 245.07C1048.75 235.09 1051.62 226.41 1057.38 219.03C1063.13 211.66 1070.94 205.9 1080.82 201.78C1090.69 197.66 1101.59 195.6 1113.53 195.6C1124.6 195.6 1134.58 196.9 1143.48 199.51C1152.37 202.11 1160.08 206.08 1166.59 211.39C1173.1 216.71 1178.31 223.49 1182.21 231.73L1145.76 247.68C1142.29 241.17 1137.79 236.61 1132.25 234.01C1126.72 231.41 1120.8 230.1 1114.51 230.1C1107.13 230.1 1101.27 231.51 1096.93 234.33C1092.59 237.15 1090.42 240.51 1090.42 244.42C1090.42 248.54 1092.59 252.12 1096.93 255.16C1101.27 258.2 1106.48 260.48 1112.55 262L1136.96 267.86C1153.45 271.77 1165.87 278.06 1174.23 286.74C1182.58 295.42 1186.76 305.84 1186.76 317.99C1186.76 328.84 1183.61 338.33 1177.32 346.47C1171.02 354.61 1162.56 360.9 1151.93 365.35C1141.3 369.8 1129.47 372.02 1116.45 372.02Z" fill="#4285F4"/>
<path d="M1320.2 372.02C1303.06 372.02 1287.05 368.93 1272.19 362.74C1257.32 356.55 1244.36 347.93 1233.29 336.86C1222.22 325.79 1213.6 312.88 1207.41 298.13C1201.23 283.38 1198.13 267.43 1198.13 250.28C1198.13 233.13 1201.22 217.19 1207.41 202.43C1213.6 187.68 1222.22 174.76 1233.29 163.7C1244.36 152.63 1257.32 144.01 1272.19 137.82C1287.05 131.64 1303.06 128.54 1320.2 128.54C1332.57 128.54 1343.96 130 1354.38 132.93C1364.79 135.86 1374.4 140.15 1383.19 145.79C1391.98 151.44 1400.06 158.38 1407.44 166.62L1376.52 196.57C1371.96 191.15 1366.92 186.48 1361.38 182.57C1355.85 178.66 1349.71 175.63 1342.99 173.46C1336.26 171.29 1328.78 170.21 1320.53 170.21C1305.99 170.21 1292.81 173.52 1280.98 180.14C1269.15 186.76 1259.77 196.04 1252.82 207.97C1245.87 219.91 1242.4 234.01 1242.4 250.28C1242.4 266.55 1245.87 280.39 1252.82 292.43C1259.76 304.47 1269.15 313.81 1280.98 320.42C1292.8 327.04 1305.99 330.35 1320.53 330.35C1333.55 330.35 1345.11 327.64 1355.2 322.21C1365.29 316.79 1374.24 309.3 1382.05 299.75L1413.3 329.37C1405.7 338.48 1397.13 346.24 1387.59 352.64C1378.04 359.04 1367.62 363.87 1356.34 367.13C1345.05 370.39 1333.01 372.01 1320.21 372.01L1320.2 372.02Z" fill="black"/>
<path d="M1636.58 182.58C1628.98 182.58 1622.47 179.87 1617.05 174.44C1611.62 169.02 1608.91 162.51 1608.91 154.91C1608.91 147.31 1611.62 140.86 1617.05 135.54C1622.47 130.22 1628.98 127.57 1636.58 127.57C1644.18 127.57 1650.63 130.23 1655.95 135.54C1661.27 140.86 1663.92 147.31 1663.92 154.91C1663.92 162.51 1661.26 169.02 1655.95 174.44C1650.63 179.87 1644.18 182.58 1636.58 182.58ZM1615.1 366.81V200.81H1657.74V366.81H1615.1Z" fill="black"/>
<path d="M1685.73 366.81V200.81H1725.77V221.64H1728.37C1733.36 213.61 1740.41 207.27 1749.53 202.6C1758.64 197.94 1768.52 195.6 1779.15 195.6C1799.55 195.6 1814.84 201.78 1825.05 214.15C1835.25 226.52 1840.35 243.01 1840.35 263.63V366.81H1797.71V268.83C1797.71 257.98 1794.94 249.68 1789.41 243.93C1783.88 238.18 1776.33 235.3 1766.79 235.3C1758.98 235.3 1752.19 237.42 1746.45 241.65C1740.7 245.88 1736.25 251.53 1733.11 258.58C1729.96 265.63 1728.39 273.5 1728.39 282.18V366.81H1685.75H1685.73Z" fill="black"/>
<path d="M1521.24 372.57C1516.52 373.34 1511.68 373.73 1506.74 373.73C1456.92 373.73 1416.54 333.42 1416.54 283.7C1416.54 272.85 1418.46 262.46 1421.98 252.83L1435.83 255.63C1433.12 264.46 1431.65 273.89 1431.65 283.7C1431.65 332.95 1468.66 372.88 1514.3 372.88C1516.64 372.88 1518.95 372.78 1521.24 372.57Z" fill="#F8AB06"/>
<path d="M1514.3 200.63C1499.27 200.63 1485.22 205.08 1473.28 212.81C1467.87 216.3 1462.9 220.46 1458.46 225.19C1457.43 226.29 1456.41 227.43 1455.44 228.59C1454.22 230.04 1453.06 231.53 1451.94 233.06C1451.03 234.3 1450.15 235.57 1449.32 236.87C1446.93 240.55 1444.82 244.45 1443.02 248.52C1438.29 259.2 1435.64 271.11 1435.64 283.68C1435.64 329.57 1470.86 366.75 1514.3 366.75C1526.25 366.75 1537.58 363.94 1547.72 358.89C1551.58 356.98 1555.26 354.74 1558.75 352.21C1559.98 351.33 1561.18 350.4 1562.36 349.43C1563.81 348.25 1565.22 347.02 1566.59 345.73C1567.69 344.7 1568.76 343.64 1569.8 342.54C1574.27 337.84 1578.21 332.58 1581.5 326.87C1588.77 314.28 1592.96 299.49 1592.96 283.67C1592.96 237.79 1557.74 200.6 1514.31 200.6L1514.3 200.63ZM1558.7 330.88C1557.67 332 1556.61 333.08 1555.51 334.1C1554.15 335.39 1552.73 336.63 1551.26 337.78C1550.06 338.73 1548.84 339.63 1547.57 340.48C1543.96 342.94 1540.1 345 1536.04 346.62C1529.27 349.33 1521.94 350.81 1514.29 350.81C1479.8 350.81 1451.84 320.77 1451.84 283.7C1451.84 275.93 1453.07 268.46 1455.34 261.53C1456.76 257.13 1458.61 252.94 1460.82 249.02C1461.59 247.66 1462.41 246.31 1463.26 245.01C1464.31 243.42 1465.43 241.87 1466.61 240.38C1467.55 239.18 1468.53 238.02 1469.55 236.9C1473.92 232.06 1478.97 227.94 1484.53 224.7C1493.38 219.54 1503.51 216.61 1514.28 216.61C1548.77 216.61 1576.72 246.65 1576.72 283.71C1576.72 294.83 1574.2 305.31 1569.74 314.55C1566.83 320.6 1563.09 326.1 1558.68 330.89L1558.7 330.88Z" fill="#FEF8E1"/>
<path d="M1596.9 281.27C1596.88 280.59 1596.86 279.91 1596.83 279.22C1594.79 234.54 1562.28 198.51 1521.24 194.83C1516.52 194.06 1511.68 193.67 1506.74 193.67C1481.62 193.67 1458.9 203.92 1442.55 220.45L1442.49 220.51C1433.52 229.6 1426.46 240.59 1421.99 252.81L1435.84 255.63C1433.13 264.46 1431.66 273.89 1431.66 283.7C1431.66 332.95 1468.67 372.88 1514.31 372.88C1516.65 372.88 1518.96 372.78 1521.25 372.57C1532.17 371.59 1542.49 368.32 1551.79 363.21C1555.53 361.16 1559.1 358.81 1562.48 356.18C1563.68 355.26 1564.85 354.29 1566 353.3C1567.41 352.08 1568.78 350.81 1570.12 349.49C1571.19 348.43 1572.24 347.34 1573.25 346.22C1577.62 341.43 1581.49 336.1 1584.76 330.35C1591.81 317.98 1596.14 303.6 1596.84 288.19C1596.87 287.51 1596.89 286.83 1596.91 286.14C1596.94 285.33 1596.94 284.52 1596.94 283.7C1596.94 282.88 1596.94 282.07 1596.91 281.26L1596.9 281.27ZM1458.46 225.2L1469.56 236.9C1468.53 238.02 1467.55 239.18 1466.62 240.38L1455.44 228.6C1456.41 227.44 1457.43 226.3 1458.46 225.2ZM1451.94 233.07L1463.26 245.01C1462.41 246.31 1461.59 247.65 1460.82 249.02L1449.31 236.89C1450.14 235.59 1451.02 234.32 1451.93 233.08L1451.94 233.07ZM1514.3 366.78C1470.86 366.78 1435.64 329.59 1435.64 283.71C1435.64 271.14 1438.29 259.23 1443.02 248.55L1455.34 261.54C1453.07 268.48 1451.84 275.94 1451.84 283.71C1451.84 320.77 1479.8 350.82 1514.29 350.82C1521.94 350.82 1529.27 349.34 1536.04 346.63L1547.71 358.93C1537.57 363.97 1526.24 366.79 1514.29 366.79L1514.3 366.78ZM1558.74 352.24L1547.58 340.48C1548.84 339.63 1550.07 338.73 1551.27 337.78L1562.35 349.46C1561.18 350.43 1559.97 351.35 1558.74 352.24ZM1566.58 345.76L1555.52 334.1C1556.61 333.08 1557.67 332 1558.71 330.88L1569.79 342.57C1568.75 343.67 1567.68 344.73 1566.58 345.76ZM1581.49 326.9L1569.77 314.54C1574.23 305.31 1576.75 294.82 1576.75 283.7C1576.75 246.64 1548.79 216.6 1514.31 216.6C1503.54 216.6 1493.4 219.53 1484.56 224.69L1473.3 212.81C1485.24 205.08 1499.29 200.63 1514.32 200.63C1557.75 200.63 1592.97 237.83 1592.97 283.7C1592.97 299.52 1588.78 314.31 1581.51 326.9H1581.49Z" fill="#FFD428"/>
</g>
<defs>
<clipPath id="clip0_413_2">
<rect width="1840.34" height="561.65" fill="white"/>
</clipPath>
</defs>
</svg>
