<svg width="1868" height="315" viewBox="0 0 1868 315" fill="none" xmlns="http://www.w3.org/2000/svg">
<g clip-path="url(#clip0_421_94)">
<path d="M123.87 248.07C106.47 248.07 90.23 244.93 75.15 238.66C60.06 232.38 46.91 223.63 35.68 212.4C24.45 201.17 15.7 188.07 9.42 173.09C3.14 158.11 0 141.93 0 124.53C0 107.13 3.14 90.95 9.41 75.97C15.69 61 24.44 47.89 35.67 36.66C46.9 25.43 60.06 16.68 75.14 10.4C90.23 4.12999 106.47 0.98999 123.87 0.98999C136.42 0.98999 147.98 2.47999 158.55 5.44999C169.12 8.41999 178.87 12.77 187.78 18.5C196.7 24.23 204.9 31.27 212.39 39.64L181.01 70.03C176.39 64.53 171.27 59.79 165.65 55.83C160.03 51.87 153.81 48.78 146.99 46.58C140.16 44.38 132.56 43.28 124.2 43.28C109.44 43.28 96.07 46.64 84.07 53.35C72.07 60.07 62.54 69.48 55.5 81.59C48.45 93.7 44.93 108.02 44.93 124.53C44.93 141.04 48.45 155.08 55.5 167.31C62.55 179.53 72.07 189 84.07 195.72C96.07 202.44 109.45 205.79 124.2 205.79C137.41 205.79 149.14 203.04 159.38 197.53C169.62 192.03 178.7 184.43 186.63 174.74L218.34 204.8C210.63 214.05 201.93 221.93 192.24 228.42C182.55 234.92 171.98 239.82 160.53 243.12C149.08 246.42 136.86 248.08 123.86 248.08L123.87 248.07Z" fill="white"/>
<path d="M284.08 248.07C272.19 248.07 261.67 245.7 252.53 240.97C243.39 236.24 236.18 229.57 230.89 220.99C225.6 212.4 222.96 202.49 222.96 191.26C222.96 180.03 225.98 169.57 232.04 161.2C238.09 152.83 246.24 146.34 256.48 141.71C266.72 137.09 278.12 134.77 290.67 134.77C297.49 134.77 303.72 135.16 309.33 135.93C314.95 136.7 319.95 137.64 324.36 138.74C328.76 139.84 332.4 141.05 335.26 142.37V135.1C335.26 126.07 331.84 118.64 325.02 112.8C318.19 106.97 308.83 104.05 296.94 104.05C289.01 104.05 281.36 105.87 273.98 109.5C266.6 113.13 260.49 117.92 255.65 123.87L227.9 102.07C233.4 95.03 239.79 89.02 247.06 84.07C254.33 79.11 262.36 75.37 271.17 72.84C279.97 70.31 289.22 69.04 298.92 69.04C324.68 69.04 344.28 74.99 357.72 86.88C371.15 98.77 377.87 116.17 377.87 139.07V242.79H335.26V225.61H332.62C329.53 229.57 325.68 233.26 321.06 236.68C316.44 240.1 311.04 242.84 304.87 244.94C298.7 247.03 291.77 248.08 284.06 248.08L284.08 248.07ZM294.32 214.38C303.13 214.38 310.56 212.45 316.62 208.6C322.67 204.75 327.3 199.74 330.49 193.57C333.68 187.41 335.28 180.91 335.28 174.08C330.43 171.66 324.93 169.74 318.76 168.3C312.59 166.87 306.32 166.15 299.93 166.15C287.16 166.15 278.34 168.58 273.5 173.42C268.66 178.26 266.23 184.21 266.23 191.26C266.23 197.87 268.59 203.37 273.33 207.78C278.06 212.19 285.06 214.39 294.31 214.39L294.32 214.38Z" fill="white"/>
<path d="M403.98 242.79V74.32H444.61V95.46H447.25C450.77 90.17 455.06 85.55 460.13 81.59C465.19 77.63 470.97 74.55 477.47 72.34C483.96 70.14 490.96 69.04 498.45 69.04C510.78 69.04 521.29 71.9 530 77.63C538.7 83.36 544.81 90.4 548.33 98.77C553.39 90.62 560.6 83.63 569.97 77.79C579.33 71.96 590.95 69.04 604.82 69.04C624.42 69.04 639.12 74.99 648.92 86.88C658.72 98.77 663.62 114.63 663.62 134.45V242.8H620.68V142.38C620.68 131.59 618.15 123.39 613.08 117.77C608.01 112.15 601.19 109.35 592.6 109.35C585.11 109.35 578.56 111.39 572.95 115.46C567.33 119.54 563.04 125.2 560.07 132.47C557.1 139.74 555.61 148.22 555.61 157.9V242.79H512.34V142.37C512.34 131.58 509.75 123.38 504.58 117.76C499.4 112.14 492.08 109.34 482.61 109.34C475.56 109.34 469.34 111.38 463.95 115.45C458.55 119.53 454.42 125.19 451.56 132.46C448.7 139.73 447.27 148.21 447.27 157.89V242.78H404L403.98 242.79Z" fill="white"/>
<path d="M690.7 314.13V74.32H731.33V94.8H733.97C736.83 90.4 740.63 86.21 745.37 82.25C750.1 78.29 755.77 75.1 762.38 72.67C768.99 70.25 776.36 69.04 784.51 69.04C799.92 69.04 813.74 72.84 825.96 80.44C838.18 88.04 847.87 98.56 855.03 111.99C862.18 125.42 865.76 140.95 865.76 158.57C865.76 176.19 862.18 191.72 855.03 205.15C847.87 218.58 838.18 229.1 825.96 236.7C813.74 244.3 799.92 248.1 784.51 248.1C772.4 248.1 761.99 245.51 753.29 240.34C744.59 235.17 738.15 229.27 733.97 222.67H731.33L733.97 246.45V314.16H690.7V314.13ZM776.91 208.1C785.05 208.1 792.6 206.07 799.54 201.99C806.48 197.92 812.09 192.14 816.39 184.65C820.68 177.17 822.83 168.46 822.83 158.56C822.83 148.66 820.68 139.73 816.39 132.46C812.1 125.19 806.48 119.53 799.54 115.45C792.6 111.38 785.06 109.34 776.91 109.34C768.76 109.34 761.55 111.38 754.61 115.45C747.67 119.53 742.06 125.25 737.76 132.63C733.47 140.01 731.32 148.65 731.32 158.56C731.32 168.47 733.47 177.11 737.76 184.49C742.06 191.87 747.67 197.65 754.61 201.83C761.55 206.02 768.98 208.11 776.91 208.11V208.1Z" fill="white"/>
<path d="M945.7 248.07C925 248.07 909.47 241.69 899.13 228.91C888.78 216.14 883.6 198.74 883.6 176.72V74.32H926.87V171.43C926.87 182.88 929.68 191.86 935.29 198.35C940.91 204.85 948.12 208.09 956.93 208.09C965.74 208.09 972.79 205.94 978.73 201.65C984.68 197.36 989.24 191.58 992.44 184.31C995.63 177.04 997.23 169.01 997.23 160.2V74.32H1040.5V242.78H999.87V221.64H997.23C993.93 226.93 989.63 231.55 984.35 235.51C979.06 239.47 973.17 242.56 966.68 244.76C960.18 246.96 953.19 248.06 945.7 248.06V248.07Z" fill="white"/>
<path d="M1132.99 248.07C1118.46 248.07 1106.07 245.97 1095.83 241.79C1085.59 237.61 1077.28 232.1 1070.89 225.27C1064.5 218.45 1059.77 210.96 1056.69 202.81L1095.34 185.96C1099.08 193.89 1104.15 199.89 1110.54 203.96C1116.92 208.04 1124.41 210.07 1133 210.07C1140.05 210.07 1146.43 208.91 1152.16 206.6C1157.88 204.29 1160.75 200.05 1160.75 193.88C1160.75 189.48 1159.26 186.01 1156.29 183.47C1153.32 180.94 1149.63 178.96 1145.22 177.52C1140.81 176.09 1136.3 174.93 1131.68 174.05L1111.86 169.76C1103.71 168 1096 164.86 1088.74 160.35C1081.47 155.84 1075.58 150.11 1071.07 143.17C1066.55 136.23 1064.3 128.25 1064.3 119.22C1064.3 109.09 1067.22 100.28 1073.05 92.79C1078.88 85.31 1086.81 79.47 1096.83 75.28C1106.85 71.1 1117.91 69 1130.03 69C1141.26 69 1151.39 70.32 1160.42 72.96C1169.45 75.6 1177.27 79.62 1183.87 85.02C1190.48 90.42 1195.76 97.3 1199.72 105.67L1162.72 121.86C1159.19 115.25 1154.63 110.63 1149.01 107.99C1143.39 105.35 1137.39 104.02 1131.01 104.02C1123.52 104.02 1117.58 105.46 1113.17 108.32C1108.76 111.18 1106.56 114.6 1106.56 118.56C1106.56 122.74 1108.76 126.38 1113.17 129.46C1117.57 132.55 1122.86 134.86 1129.03 136.4L1153.8 142.35C1170.53 146.31 1183.14 152.7 1191.62 161.51C1200.1 170.32 1204.34 180.89 1204.34 193.22C1204.34 204.23 1201.15 213.87 1194.76 222.12C1188.37 230.38 1179.78 236.77 1168.99 241.28C1158.2 245.79 1146.2 248.05 1132.99 248.05V248.07Z" fill="white"/>
<path d="M1339.77 248.07C1322.37 248.07 1306.13 244.93 1291.05 238.66C1275.96 232.38 1262.81 223.63 1251.58 212.4C1240.35 201.17 1231.6 188.07 1225.32 173.09C1219.04 158.12 1215.91 141.93 1215.91 124.53C1215.91 107.13 1219.05 90.95 1225.32 75.97C1231.6 61 1240.35 47.89 1251.58 36.66C1262.81 25.43 1275.97 16.68 1291.05 10.4C1306.13 4.11999 1322.37 0.98999 1339.77 0.98999C1352.32 0.98999 1363.88 2.47999 1374.45 5.44999C1385.02 8.41999 1394.76 12.77 1403.68 18.5C1412.6 24.23 1420.8 31.27 1428.29 39.64L1396.91 70.03C1392.29 64.53 1387.17 59.79 1381.55 55.83C1375.93 51.87 1369.71 48.78 1362.89 46.58C1356.06 44.38 1348.47 43.28 1340.1 43.28C1325.34 43.28 1311.97 46.64 1299.97 53.35C1287.96 60.07 1278.44 69.48 1271.4 81.59C1264.35 93.7 1260.83 108.02 1260.83 124.53C1260.83 141.04 1264.35 155.08 1271.4 167.31C1278.45 179.53 1287.97 189 1299.97 195.72C1311.97 202.44 1325.35 205.79 1340.1 205.79C1353.31 205.79 1365.04 203.04 1375.28 197.53C1385.52 192.03 1394.6 184.43 1402.53 174.74L1434.24 204.8C1426.53 214.05 1417.83 221.93 1408.14 228.42C1398.45 234.92 1387.88 239.82 1376.43 243.12C1364.98 246.42 1352.75 248.08 1339.76 248.08L1339.77 248.07Z" fill="white"/>
<path d="M1660.84 55.82C1653.13 55.82 1646.52 53.07 1641.02 47.56C1635.51 42.06 1632.76 35.45 1632.76 27.74C1632.76 20.03 1635.51 13.48 1641.02 8.09C1646.52 2.7 1653.13 0 1660.84 0C1668.55 0 1675.09 2.7 1680.49 8.09C1685.88 13.49 1688.58 20.04 1688.58 27.74C1688.58 35.44 1685.88 42.06 1680.49 47.56C1675.09 53.07 1668.54 55.82 1660.84 55.82ZM1639.04 242.79V74.32H1682.31V242.78H1639.04V242.79Z" fill="white"/>
<path d="M1710.71 242.79V74.32H1751.34V95.46H1753.98C1759.04 87.31 1766.2 80.87 1775.45 76.14C1784.7 71.41 1794.72 69.04 1805.51 69.04C1826.21 69.04 1841.73 75.32 1852.09 87.87C1862.44 100.42 1867.62 117.16 1867.62 138.08V242.79H1824.35V143.36C1824.35 132.35 1821.54 123.93 1815.93 118.09C1810.31 112.26 1802.66 109.34 1792.97 109.34C1785.04 109.34 1778.16 111.49 1772.32 115.78C1766.48 120.07 1761.97 125.8 1758.78 132.96C1755.59 140.12 1753.99 148.1 1753.99 156.91V242.79H1710.72H1710.71Z" fill="white"/>
<path d="M1456.37 128.643C1453.64 137.694 1452.17 147.35 1452.17 157.37C1452.17 206.847 1488.02 247.357 1533.3 250.199C1532.38 250.225 1531.47 250.24 1530.55 250.24C1479.16 250.24 1437.5 208.662 1437.5 157.37C1437.5 146.332 1439.43 135.748 1442.97 125.93L1456.37 128.643Z" fill="white" stroke="black"/>
<path d="M1538.39 71.2148C1522.8 71.2148 1508.23 75.8331 1495.85 83.8492C1490.24 87.4706 1485.08 91.7877 1480.47 96.6917C1479.4 97.8316 1478.35 99.0149 1477.34 100.22C1476.08 101.72 1474.87 103.264 1473.72 104.86C1472.77 106.146 1471.86 107.466 1471 108.814C1468.52 112.631 1466.33 116.671 1464.46 120.898C1459.55 131.974 1456.81 144.329 1456.81 157.367C1456.81 204.954 1493.33 243.522 1538.38 243.522C1550.78 243.522 1562.52 240.606 1573.04 235.375C1577.04 233.391 1580.87 231.074 1584.48 228.449C1585.75 227.533 1587 226.574 1588.22 225.57C1589.72 224.35 1591.19 223.067 1592.6 221.732C1593.75 220.663 1594.85 219.561 1595.93 218.421C1600.57 213.551 1604.65 208.094 1608.07 202.171C1615.61 189.117 1619.95 173.778 1619.95 157.37C1619.95 109.789 1583.43 71.2148 1538.39 71.2148ZM1584.44 206.299C1583.37 207.46 1582.27 208.578 1581.14 209.641C1579.72 210.982 1578.25 212.259 1576.73 213.458C1575.49 214.439 1574.22 215.377 1572.91 216.256C1569.16 218.803 1565.16 220.94 1560.95 222.62C1553.92 225.427 1546.33 226.965 1538.39 226.965C1502.62 226.965 1473.63 195.807 1473.63 157.37C1473.63 149.31 1474.9 141.568 1477.25 134.375C1478.73 129.815 1480.64 125.47 1482.94 121.402C1483.74 119.988 1484.59 118.594 1485.47 117.246C1486.56 115.594 1487.72 113.985 1488.94 112.441C1489.91 111.199 1490.93 109.994 1491.99 108.832C1496.53 103.816 1501.77 99.5398 1507.54 96.1762C1516.71 90.8218 1527.22 87.7843 1538.39 87.7843C1574.16 87.7843 1603.15 118.942 1603.15 157.373C1603.15 168.905 1600.54 179.778 1595.92 189.354C1592.9 195.624 1589.02 201.333 1584.44 206.302L1584.44 206.299Z" fill="white"/>
<path d="M1624.06 154.845C1624.04 154.137 1624.02 153.432 1623.98 152.724C1621.87 106.385 1588.15 69.0221 1545.59 65.2051C1540.69 64.41 1535.67 64 1530.55 64C1504.5 64 1480.94 74.6281 1463.98 91.7721L1463.92 91.8374C1454.61 101.27 1447.29 112.662 1442.65 125.34L1442.65 125.355L1457.01 128.262C1454.2 137.418 1452.68 147.205 1452.68 157.37C1452.68 208.448 1491.05 249.861 1538.39 249.861C1540.81 249.861 1543.22 249.752 1545.59 249.535C1556.91 248.516 1567.61 245.125 1577.26 239.823C1581.14 237.695 1584.84 235.254 1588.35 232.527C1589.59 231.574 1590.8 230.571 1592 229.54C1593.46 228.276 1594.88 226.956 1596.27 225.586C1597.38 224.49 1598.47 223.356 1599.52 222.194C1604.05 217.222 1608.06 211.703 1611.46 205.737C1618.77 192.907 1623.26 177.992 1623.99 162.016C1624.02 161.308 1624.04 160.603 1624.07 159.895C1624.09 159.056 1624.1 158.215 1624.1 157.37C1624.1 156.525 1624.09 155.68 1624.07 154.845H1624.06ZM1480.48 96.6948L1491.99 108.832C1490.93 109.994 1489.91 111.199 1488.94 112.441L1477.35 100.226C1478.36 99.0211 1479.41 97.8378 1480.48 96.6979V96.6948ZM1473.72 104.863L1485.46 117.246C1484.58 118.594 1483.73 119.988 1482.94 121.402L1471 108.817C1471.86 107.469 1472.78 106.146 1473.72 104.863ZM1538.39 243.525C1493.33 243.525 1456.81 204.957 1456.81 157.37C1456.81 144.332 1459.56 131.977 1464.47 120.902L1477.25 134.375C1474.89 141.568 1473.62 149.31 1473.62 157.37C1473.62 195.807 1502.61 226.965 1538.39 226.965C1546.32 226.965 1553.92 225.427 1560.94 222.62L1573.04 235.378C1562.52 240.609 1550.78 243.525 1538.38 243.525H1538.39ZM1584.48 228.453L1572.91 216.259C1574.22 215.38 1575.49 214.442 1576.73 213.461L1588.22 225.577C1587 226.58 1585.76 227.539 1584.48 228.456V228.453ZM1592.61 221.735L1581.13 209.641C1582.27 208.578 1583.37 207.46 1584.44 206.299L1595.93 218.421C1594.85 219.561 1593.74 220.666 1592.6 221.732L1592.61 221.735ZM1608.07 202.171L1595.91 189.35C1600.53 179.775 1603.15 168.902 1603.15 157.37C1603.15 118.939 1574.15 87.7812 1538.39 87.7812C1527.21 87.7812 1516.7 90.8187 1507.53 96.1731L1495.85 83.8492C1508.23 75.8331 1522.8 71.2148 1538.39 71.2148C1583.43 71.2148 1619.95 109.789 1619.95 157.37C1619.95 173.778 1615.61 189.117 1608.07 202.171H1608.07Z" fill="white" stroke="black"/>
</g>
<defs>
<clipPath id="clip0_421_94">
<rect width="1867.61" height="314.13" fill="white"/>
</clipPath>
</defs>
</svg>
