<svg width="1868" height="315" viewBox="0 0 1868 315" fill="none" xmlns="http://www.w3.org/2000/svg">
<g clip-path="url(#clip0_420_63)">
<path d="M123.87 248.07C106.47 248.07 90.23 244.93 75.15 238.66C60.06 232.38 46.91 223.63 35.68 212.4C24.45 201.17 15.7 188.07 9.42 173.09C3.14 158.11 0 141.93 0 124.53C0 107.13 3.14 90.95 9.41 75.97C15.69 61 24.44 47.89 35.67 36.66C46.9 25.43 60.06 16.68 75.14 10.4C90.23 4.12999 106.47 0.98999 123.87 0.98999C136.42 0.98999 147.98 2.47999 158.55 5.44999C169.12 8.41999 178.87 12.77 187.78 18.5C196.7 24.23 204.9 31.27 212.39 39.64L181.01 70.03C176.39 64.53 171.27 59.79 165.65 55.83C160.03 51.87 153.81 48.78 146.99 46.58C140.16 44.38 132.56 43.28 124.2 43.28C109.44 43.28 96.07 46.64 84.07 53.35C72.07 60.07 62.54 69.48 55.5 81.59C48.45 93.7 44.93 108.02 44.93 124.53C44.93 141.04 48.45 155.08 55.5 167.31C62.55 179.53 72.07 189 84.07 195.72C96.07 202.44 109.45 205.79 124.2 205.79C137.41 205.79 149.14 203.04 159.38 197.53C169.62 192.03 178.7 184.43 186.63 174.74L218.34 204.8C210.63 214.05 201.93 221.93 192.24 228.42C182.55 234.92 171.98 239.82 160.53 243.12C149.08 246.42 136.86 248.08 123.86 248.08L123.87 248.07Z" fill="#4285F4"/>
<path d="M284.08 248.07C272.19 248.07 261.67 245.7 252.53 240.97C243.39 236.24 236.18 229.57 230.89 220.99C225.6 212.4 222.96 202.49 222.96 191.26C222.96 180.03 225.98 169.57 232.04 161.2C238.09 152.83 246.24 146.34 256.48 141.71C266.72 137.09 278.12 134.77 290.67 134.77C297.49 134.77 303.72 135.16 309.33 135.93C314.95 136.7 319.95 137.64 324.36 138.74C328.76 139.84 332.4 141.05 335.26 142.37V135.1C335.26 126.07 331.84 118.64 325.02 112.8C318.19 106.97 308.83 104.05 296.94 104.05C289.01 104.05 281.36 105.87 273.98 109.5C266.6 113.13 260.49 117.92 255.65 123.87L227.9 102.07C233.4 95.03 239.79 89.02 247.06 84.07C254.33 79.11 262.36 75.37 271.17 72.84C279.97 70.31 289.22 69.04 298.92 69.04C324.68 69.04 344.28 74.99 357.72 86.88C371.15 98.77 377.87 116.17 377.87 139.07V242.79H335.26V225.61H332.62C329.53 229.57 325.68 233.26 321.06 236.68C316.44 240.1 311.04 242.84 304.87 244.94C298.7 247.03 291.77 248.08 284.06 248.08L284.08 248.07ZM294.32 214.38C303.13 214.38 310.56 212.45 316.62 208.6C322.67 204.75 327.3 199.74 330.49 193.57C333.68 187.41 335.28 180.91 335.28 174.08C330.43 171.66 324.93 169.74 318.76 168.3C312.59 166.87 306.32 166.15 299.93 166.15C287.16 166.15 278.34 168.58 273.5 173.42C268.66 178.26 266.23 184.21 266.23 191.26C266.23 197.87 268.59 203.37 273.33 207.78C278.06 212.19 285.06 214.39 294.31 214.39L294.32 214.38Z" fill="#4285F4"/>
<path d="M403.98 242.79V74.32H444.61V95.46H447.25C450.77 90.17 455.06 85.55 460.13 81.59C465.19 77.63 470.97 74.55 477.47 72.34C483.96 70.14 490.96 69.04 498.45 69.04C510.78 69.04 521.29 71.9 530 77.63C538.7 83.36 544.81 90.4 548.33 98.77C553.39 90.62 560.6 83.63 569.97 77.79C579.33 71.96 590.95 69.04 604.82 69.04C624.42 69.04 639.12 74.99 648.92 86.88C658.72 98.77 663.62 114.63 663.62 134.45V242.8H620.68V142.38C620.68 131.59 618.15 123.39 613.08 117.77C608.01 112.15 601.19 109.35 592.6 109.35C585.11 109.35 578.56 111.39 572.95 115.46C567.33 119.54 563.04 125.2 560.07 132.47C557.1 139.74 555.61 148.22 555.61 157.9V242.79H512.34V142.37C512.34 131.58 509.75 123.38 504.58 117.76C499.4 112.14 492.08 109.34 482.61 109.34C475.56 109.34 469.34 111.38 463.95 115.45C458.55 119.53 454.42 125.19 451.56 132.46C448.7 139.73 447.27 148.21 447.27 157.89V242.78H404L403.98 242.79Z" fill="#4285F4"/>
<path d="M690.7 314.13V74.32H731.33V94.8H733.97C736.83 90.4 740.63 86.21 745.37 82.25C750.1 78.29 755.77 75.1 762.38 72.67C768.99 70.25 776.36 69.04 784.51 69.04C799.92 69.04 813.74 72.84 825.96 80.44C838.18 88.04 847.87 98.56 855.03 111.99C862.18 125.42 865.76 140.95 865.76 158.57C865.76 176.19 862.18 191.72 855.03 205.15C847.87 218.58 838.18 229.1 825.96 236.7C813.74 244.3 799.92 248.1 784.51 248.1C772.4 248.1 761.99 245.51 753.29 240.34C744.59 235.17 738.15 229.27 733.97 222.67H731.33L733.97 246.45V314.16H690.7V314.13ZM776.91 208.1C785.05 208.1 792.6 206.07 799.54 201.99C806.48 197.92 812.09 192.14 816.39 184.65C820.68 177.17 822.83 168.46 822.83 158.56C822.83 148.66 820.68 139.73 816.39 132.46C812.1 125.19 806.48 119.53 799.54 115.45C792.6 111.38 785.06 109.34 776.91 109.34C768.76 109.34 761.55 111.38 754.61 115.45C747.67 119.53 742.06 125.25 737.76 132.63C733.47 140.01 731.32 148.65 731.32 158.56C731.32 168.47 733.47 177.11 737.76 184.49C742.06 191.87 747.67 197.65 754.61 201.83C761.55 206.02 768.98 208.11 776.91 208.11V208.1Z" fill="#4285F4"/>
<path d="M945.7 248.07C925 248.07 909.47 241.69 899.13 228.91C888.78 216.14 883.6 198.74 883.6 176.72V74.3199H926.87V171.43C926.87 182.88 929.68 191.86 935.29 198.35C940.91 204.85 948.12 208.09 956.93 208.09C965.74 208.09 972.79 205.94 978.73 201.65C984.68 197.36 989.24 191.58 992.44 184.31C995.63 177.04 997.23 169.01 997.23 160.2V74.3199H1040.5V242.78H999.87V221.64H997.23C993.93 226.93 989.63 231.55 984.35 235.51C979.06 239.47 973.17 242.56 966.68 244.76C960.18 246.96 953.19 248.06 945.7 248.06V248.07Z" fill="#4285F4"/>
<path d="M1132.99 248.07C1118.46 248.07 1106.07 245.97 1095.83 241.79C1085.59 237.61 1077.28 232.1 1070.89 225.27C1064.5 218.45 1059.77 210.96 1056.69 202.81L1095.34 185.96C1099.08 193.89 1104.15 199.89 1110.54 203.96C1116.92 208.04 1124.41 210.07 1133 210.07C1140.05 210.07 1146.43 208.91 1152.16 206.6C1157.88 204.29 1160.75 200.05 1160.75 193.88C1160.75 189.48 1159.26 186.01 1156.29 183.47C1153.32 180.94 1149.63 178.96 1145.22 177.52C1140.81 176.09 1136.3 174.93 1131.68 174.05L1111.86 169.76C1103.71 168 1096 164.86 1088.74 160.35C1081.47 155.84 1075.58 150.11 1071.07 143.17C1066.55 136.23 1064.3 128.25 1064.3 119.22C1064.3 109.09 1067.22 100.28 1073.05 92.79C1078.88 85.31 1086.81 79.47 1096.83 75.28C1106.85 71.1 1117.91 69 1130.03 69C1141.26 69 1151.39 70.32 1160.42 72.96C1169.45 75.6 1177.27 79.62 1183.87 85.02C1190.48 90.42 1195.76 97.3 1199.72 105.67L1162.72 121.86C1159.19 115.25 1154.63 110.63 1149.01 107.99C1143.39 105.35 1137.39 104.02 1131.01 104.02C1123.52 104.02 1117.58 105.46 1113.17 108.32C1108.76 111.18 1106.56 114.6 1106.56 118.56C1106.56 122.74 1108.76 126.38 1113.17 129.46C1117.57 132.55 1122.86 134.86 1129.03 136.4L1153.8 142.35C1170.53 146.31 1183.14 152.7 1191.62 161.51C1200.1 170.32 1204.34 180.89 1204.34 193.22C1204.34 204.23 1201.15 213.87 1194.76 222.12C1188.37 230.38 1179.78 236.77 1168.99 241.28C1158.2 245.79 1146.2 248.05 1132.99 248.05V248.07Z" fill="#4285F4"/>
<path d="M1339.77 248.07C1322.37 248.07 1306.13 244.93 1291.05 238.66C1275.96 232.38 1262.81 223.63 1251.58 212.4C1240.35 201.17 1231.6 188.07 1225.32 173.09C1219.04 158.12 1215.91 141.93 1215.91 124.53C1215.91 107.13 1219.05 90.95 1225.32 75.97C1231.6 61 1240.35 47.89 1251.58 36.66C1262.81 25.43 1275.97 16.68 1291.05 10.4C1306.13 4.11999 1322.37 0.98999 1339.77 0.98999C1352.32 0.98999 1363.88 2.47999 1374.45 5.44999C1385.02 8.41999 1394.76 12.77 1403.68 18.5C1412.6 24.23 1420.8 31.27 1428.29 39.64L1396.91 70.03C1392.29 64.53 1387.17 59.79 1381.55 55.83C1375.93 51.87 1369.71 48.78 1362.89 46.58C1356.06 44.38 1348.47 43.28 1340.1 43.28C1325.34 43.28 1311.97 46.64 1299.97 53.35C1287.96 60.07 1278.44 69.48 1271.4 81.59C1264.35 93.7 1260.83 108.02 1260.83 124.53C1260.83 141.04 1264.35 155.08 1271.4 167.31C1278.45 179.53 1287.97 189 1299.97 195.72C1311.97 202.44 1325.35 205.79 1340.1 205.79C1353.31 205.79 1365.04 203.04 1375.28 197.53C1385.52 192.03 1394.6 184.43 1402.53 174.74L1434.24 204.8C1426.53 214.05 1417.83 221.93 1408.14 228.42C1398.45 234.92 1387.88 239.82 1376.43 243.12C1364.98 246.42 1352.75 248.08 1339.76 248.08L1339.77 248.07Z" fill="black"/>
<path d="M1660.84 55.82C1653.13 55.82 1646.52 53.07 1641.02 47.56C1635.51 42.06 1632.76 35.45 1632.76 27.74C1632.76 20.03 1635.51 13.48 1641.02 8.09C1646.52 2.7 1653.13 0 1660.84 0C1668.55 0 1675.09 2.7 1680.49 8.09C1685.88 13.49 1688.58 20.04 1688.58 27.74C1688.58 35.44 1685.88 42.06 1680.49 47.56C1675.09 53.07 1668.54 55.82 1660.84 55.82ZM1639.04 242.79V74.32H1682.31V242.78H1639.04V242.79Z" fill="black"/>
<path d="M1710.71 242.79V74.32H1751.34V95.46H1753.98C1759.04 87.31 1766.2 80.87 1775.45 76.14C1784.7 71.41 1794.72 69.04 1805.51 69.04C1826.21 69.04 1841.73 75.32 1852.09 87.87C1862.44 100.42 1867.62 117.16 1867.62 138.08V242.79H1824.35V143.36C1824.35 132.35 1821.54 123.93 1815.93 118.09C1810.31 112.26 1802.66 109.34 1792.97 109.34C1785.04 109.34 1778.16 111.49 1772.32 115.78C1766.48 120.07 1761.97 125.8 1758.78 132.96C1755.59 140.12 1753.99 148.1 1753.99 156.91V242.79H1710.72H1710.71Z" fill="black"/>
<path d="M1624.63 158.55C1624.63 209.42 1584.15 250.65 1531.98 250.65C1479.81 250.65 1437.53 209.42 1437.53 158.55C1437.53 107.68 1479.82 66.45 1531.98 66.45C1584.14 66.45 1624.63 107.68 1624.63 158.55Z" fill="#1D1D1B"/>
<path d="M1547.62 245.24C1543.01 245.99 1538.27 246.38 1533.45 246.38C1484.76 246.38 1445.29 206.99 1445.29 158.39C1445.29 147.79 1447.17 137.63 1450.61 128.22L1464.15 130.96C1461.5 139.59 1460.06 148.81 1460.06 158.39C1460.06 206.52 1496.23 245.55 1540.83 245.55C1543.11 245.55 1545.38 245.45 1547.61 245.24H1547.62Z" fill="#F8AB06"/>
<path d="M1540.84 77.1899C1526.15 77.1899 1512.42 81.5399 1500.75 89.0999C1495.46 92.5099 1490.61 96.5799 1486.26 101.2C1485.25 102.27 1484.26 103.39 1483.31 104.53C1482.12 105.94 1480.98 107.4 1479.89 108.9C1479 110.11 1478.14 111.35 1477.33 112.63C1474.99 116.23 1472.93 120.03 1471.17 124.02C1466.54 134.46 1463.96 146.1 1463.96 158.39C1463.96 203.23 1498.38 239.58 1540.83 239.58C1552.51 239.58 1563.58 236.83 1573.49 231.9C1577.26 230.03 1580.86 227.85 1584.27 225.37C1585.47 224.51 1586.65 223.6 1587.79 222.66C1589.21 221.51 1590.59 220.3 1591.92 219.04C1593 218.03 1594.04 216.99 1595.05 215.92C1599.42 211.33 1603.27 206.19 1606.49 200.61C1613.6 188.31 1617.69 173.85 1617.69 158.39C1617.69 113.55 1583.27 77.1999 1540.82 77.1999L1540.84 77.1899ZM1584.24 204.49C1583.23 205.58 1582.19 206.64 1581.12 207.64C1579.79 208.9 1578.4 210.11 1576.97 211.24C1575.8 212.16 1574.6 213.05 1573.37 213.88C1569.84 216.28 1566.07 218.29 1562.1 219.88C1555.48 222.53 1548.32 223.97 1540.84 223.97C1507.13 223.97 1479.81 194.61 1479.81 158.39C1479.81 150.79 1481.01 143.5 1483.23 136.72C1484.62 132.42 1486.42 128.33 1488.59 124.49C1489.34 123.16 1490.14 121.84 1490.97 120.57C1492 119.01 1493.09 117.5 1494.24 116.04C1495.16 114.87 1496.11 113.73 1497.12 112.64C1501.39 107.91 1506.33 103.88 1511.76 100.71C1520.41 95.6599 1530.31 92.7999 1540.84 92.7999C1574.54 92.7999 1601.87 122.16 1601.87 158.38C1601.87 169.25 1599.41 179.49 1595.05 188.52C1592.21 194.43 1588.55 199.81 1584.24 204.49Z" fill="#FEF8E1"/>
<path d="M1621.57 156C1621.55 155.33 1621.53 154.67 1621.5 154C1619.51 110.33 1587.73 75.1199 1547.62 71.5299C1543.01 70.7799 1538.27 70.3899 1533.45 70.3899C1508.9 70.3899 1486.7 80.4099 1470.71 96.5599L1470.65 96.6199C1461.88 105.51 1454.98 116.24 1450.61 128.19L1464.15 130.94C1461.5 139.57 1460.06 148.79 1460.06 158.37C1460.06 206.5 1496.23 245.53 1540.83 245.53C1543.11 245.53 1545.38 245.43 1547.61 245.22C1558.28 244.26 1568.37 241.07 1577.45 236.07C1581.11 234.06 1584.59 231.77 1587.9 229.2C1589.07 228.3 1590.22 227.36 1591.34 226.38C1592.72 225.19 1594.06 223.95 1595.37 222.65C1596.42 221.62 1597.44 220.55 1598.43 219.45C1602.7 214.77 1606.48 209.56 1609.68 203.94C1616.57 191.85 1620.8 177.8 1621.49 162.74C1621.52 162.07 1621.54 161.41 1621.56 160.74C1621.59 159.95 1621.59 159.16 1621.59 158.36C1621.59 157.56 1621.59 156.77 1621.56 155.98L1621.57 156ZM1486.27 101.2L1497.12 112.64C1496.12 113.73 1495.16 114.87 1494.24 116.04L1483.32 104.53C1484.27 103.39 1485.26 102.28 1486.27 101.2ZM1479.9 108.9L1490.97 120.57C1490.14 121.84 1489.34 123.15 1488.59 124.49L1477.34 112.63C1478.15 111.36 1479.01 110.11 1479.9 108.9ZM1540.84 239.57C1498.38 239.57 1463.97 203.23 1463.97 158.38C1463.97 146.09 1466.56 134.45 1471.18 124.01L1483.22 136.71C1481 143.49 1479.8 150.79 1479.8 158.38C1479.8 194.6 1507.12 223.96 1540.83 223.96C1548.31 223.96 1555.47 222.51 1562.09 219.87L1573.49 231.89C1563.58 236.82 1552.51 239.57 1540.83 239.57H1540.84ZM1584.28 225.37L1573.37 213.88C1574.6 213.05 1575.81 212.17 1576.97 211.24L1587.8 222.66C1586.65 223.61 1585.48 224.51 1584.28 225.37ZM1591.93 219.04L1581.12 207.64C1582.19 206.64 1583.23 205.59 1584.24 204.49L1595.07 215.91C1594.05 216.98 1593.01 218.02 1591.94 219.03L1591.93 219.04ZM1606.51 200.6L1595.05 188.52C1599.41 179.5 1601.87 169.25 1601.87 158.38C1601.87 122.16 1574.55 92.7999 1540.84 92.7999C1530.31 92.7999 1520.41 95.6599 1511.76 100.71L1500.75 89.0999C1512.42 81.5499 1526.15 77.1899 1540.84 77.1899C1583.29 77.1899 1617.71 113.54 1617.71 158.38C1617.71 173.84 1613.62 188.3 1606.51 200.6Z" fill="#FFD428"/>
<path d="M1540.84 69.2C1495.34 69.2 1458.45 108.95 1458.45 157.97C1458.45 206.99 1495.33 246.74 1540.84 246.74C1586.35 246.74 1623.23 206.99 1623.23 157.97C1623.23 108.95 1586.34 69.2 1540.84 69.2ZM1540.84 244.37C1496.66 244.37 1460.85 205.69 1460.85 157.97C1460.85 110.25 1496.66 71.57 1540.84 71.57C1585.02 71.57 1620.83 110.25 1620.83 157.97C1620.83 205.69 1585.02 244.37 1540.84 244.37Z" fill="#1D1D1B"/>
</g>
<defs>
<clipPath id="clip0_420_63">
<rect width="1867.61" height="314.13" fill="white"/>
</clipPath>
</defs>
</svg>
