<svg version="1.2" baseProfile="tiny-ps" xmlns="http://www.w3.org/2000/svg" viewBox="0 0 1521 1350" width="1521" height="1350">
	<title>unnamed-svg</title>
	<style>
		tspan { white-space:pre }
		.shp0 { fill: #cc2427 } 
	</style>
	<g id="#cc2427ff">
		<path id="Layer" class="shp0" d="M169.24 18.25C369.48 5.08 570.32 -2.73 771.13 2.49C914.31 7.29 1057.96 16.6 1198.55 45.63C1277.81 63.17 1357.96 85.56 1427.29 129.17C1468.73 156.03 1509.37 193.61 1518.17 244.51C1529.08 303.54 1504.76 361.63 1474.99 411.35C1419.58 500.82 1344.04 575.51 1266.52 645.84C1168.78 732.62 1064.64 812.02 957.82 887.28C853.06 960.1 747.94 1032.44 641.16 1102.25C505.04 1189.69 365.81 1272.25 223.99 1350L31.42 1350C129.87 1281.65 222.39 1205.22 313.03 1126.9C424.74 1030.33 533.02 929.85 639.28 827.26C659.98 807.37 682.27 788.6 697.94 764.18C748.55 693.34 795.16 611.78 792.76 521.98C791.4 460.6 757.91 404.2 712.42 364.74C637.63 300.62 542.15 267.79 448.31 243.05C353.48 218.87 256.35 205.6 159.22 195.16C106.12 192.2 53.25 184.77 0 184.48L0 31.7C56.21 24.88 112.79 22.48 169.24 18.25Z" />
	</g>
</svg>