<?xml version="1.0" encoding="UTF-8"?>
<svg id="Capa_2" data-name="Capa 2" xmlns="http://www.w3.org/2000/svg" viewBox="0 0 639.28 629.36">
  <defs>
    <style>
      .cls-1 {
        fill: #f8ab06;
      }

      .cls-2 {
        fill: #1d1d1b;
      }

      .cls-3 {
        fill: #ffd428;
      }

      .cls-4 {
        fill: #fef8e1;
      }
    </style>
  </defs>
  <g id="Capa_7" data-name="Capa 7">
    <g>
      <g>
        <path class="cls-2" d="M639.28,314.68c0,173.79-138.32,314.68-316.55,314.68S0,488.47,0,314.68,144.49,0,322.72,0s316.55,140.89,316.55,314.68Z"/>
        <g>
          <path class="cls-1" d="M376.17,610.85c-15.76,2.56-31.93,3.88-48.41,3.88-166.35,0-301.21-134.59-301.21-300.63,0-36.22,6.43-70.93,18.17-103.08l46.25,9.36c-9.06,29.48-13.96,60.99-13.96,93.72,0,164.46,123.57,297.8,275.98,297.8,7.8,0,15.54-.35,23.18-1.05Z"/>
          <path class="cls-4" d="M352.99,36.7c-50.19,0-97.1,14.87-136.96,40.68-18.06,11.66-34.66,25.56-49.5,41.35-3.45,3.67-6.83,7.48-10.08,11.36-4.06,4.83-7.96,9.8-11.68,14.94-3.04,4.14-5.98,8.39-8.75,12.73-7.98,12.29-15.02,25.3-21.04,38.91-15.81,35.66-24.65,75.44-24.65,117.42,0,153.22,117.59,277.4,262.65,277.4,39.91,0,77.73-9.39,111.6-26.23,12.88-6.39,25.19-13.85,36.82-22.3,4.1-2.95,8.12-6.04,12.04-9.27,4.85-3.93,9.56-8.06,14.12-12.36,3.68-3.44,7.24-6.99,10.71-10.66,14.93-15.68,28.07-33.25,39.08-52.32,24.29-42.03,38.27-91.42,38.27-144.25,0-153.2-117.59-277.4-262.63-277.4ZM501.28,471.64c-3.45,3.74-6.99,7.34-10.64,10.76-4.55,4.32-9.29,8.43-14.18,12.29-3.99,3.16-8.1,6.18-12.31,9.01-12.06,8.2-24.94,15.08-38.51,20.49-22.62,9.04-47.08,13.99-72.63,13.99-115.18,0-208.53-100.32-208.53-224.08,0-25.95,4.1-50.88,11.68-74.04,4.76-14.68,10.91-28.67,18.31-41.77,2.57-4.55,5.3-9.04,8.14-13.38,3.52-5.32,7.24-10.5,11.18-15.47,3.13-4,6.4-7.88,9.83-11.62,14.59-16.15,31.46-29.92,50.04-40.75,29.54-17.24,63.39-27.02,99.35-27.02,115.16,0,208.51,100.32,208.51,224.06,0,37.13-8.41,72.14-23.29,102.97-9.72,20.19-22.21,38.57-36.94,54.57Z"/>
          <path class="cls-3" d="M628.84,305.97c-.07-2.28-.14-4.55-.25-6.83-6.81-149.2-115.38-269.5-252.42-281.79-15.76-2.56-31.93-3.88-48.41-3.88-83.88,0-159.74,34.22-214.35,89.42l-.2.21c-29.97,30.37-53.53,67.05-68.46,107.87l-.02.05,46.25,9.36c-9.06,29.48-13.96,60.99-13.96,93.72,0,164.46,123.57,297.8,275.98,297.8,7.8,0,15.54-.35,23.18-1.05,36.46-3.28,70.92-14.2,101.97-31.27,12.49-6.85,24.4-14.71,35.7-23.49,3.99-3.07,7.91-6.3,11.75-9.62,4.71-4.07,9.29-8.32,13.76-12.73,3.59-3.53,7.08-7.18,10.46-10.92,14.59-16.01,27.51-33.78,38.45-52.99,23.54-41.31,38-89.33,40.34-140.77.11-2.28.18-4.55.25-6.83.09-2.7.11-5.41.11-8.13s-.02-5.44-.11-8.13ZM166.53,118.73l37.07,39.08c-3.43,3.74-6.7,7.62-9.83,11.62l-37.32-39.33c3.25-3.88,6.63-7.69,10.08-11.36ZM144.77,145.03l37.81,39.87c-2.84,4.34-5.57,8.83-8.14,13.38l-38.42-40.52c2.77-4.34,5.71-8.6,8.75-12.73ZM352.99,591.5c-145.06,0-262.65-124.18-262.65-277.4,0-41.98,8.84-81.76,24.65-117.42l41.15,43.38c-7.58,23.16-11.68,48.09-11.68,74.04,0,123.76,93.35,224.08,208.53,224.08,25.55,0,50.01-4.95,72.63-13.99l38.96,41.08c-33.87,16.84-71.68,26.23-111.6,26.23ZM501.41,542.96l-37.27-39.26c4.22-2.83,8.32-5.85,12.31-9.01l37,39.01c-3.92,3.23-7.94,6.32-12.04,9.27ZM527.57,521.33l-36.94-38.94c3.65-3.42,7.19-7.02,10.64-10.76l37,39.03c-3.47,3.67-7.04,7.23-10.71,10.66ZM577.36,458.35l-39.15-41.28c14.88-30.83,23.29-65.84,23.29-102.97,0-123.74-93.35-224.06-208.51-224.06-35.97,0-69.81,9.78-99.35,27.02l-37.61-39.68c39.87-25.81,86.77-40.68,136.96-40.68,145.04,0,262.63,124.2,262.63,277.4,0,52.83-13.98,102.22-38.27,144.25Z"/>
        </g>
      </g>
      <path class="cls-2" d="M352.98,9.37c-155.47,0-281.49,135.8-281.49,303.32s126.02,303.31,281.49,303.31,281.49-135.8,281.49-303.31S508.44,9.37,352.98,9.37ZM352.98,607.9c-150.95,0-273.32-132.17-273.32-295.21S202.03,17.47,352.98,17.47s273.32,132.17,273.32,295.22-122.37,295.21-273.32,295.21Z"/>
    </g>
  </g>
</svg>