<svg width="603" height="602" viewBox="0 0 603 602" fill="none" xmlns="http://www.w3.org/2000/svg">
<path d="M349.62 597.38C333.86 599.94 317.69 601.26 301.21 601.26C134.86 601.26 0 466.67 0 300.63C0 264.41 6.43004 229.7 18.17 197.55L64.42 206.91C55.36 236.39 50.46 267.9 50.46 300.63C50.46 465.09 174.03 598.43 326.44 598.43C334.24 598.43 341.98 598.08 349.62 597.38Z" fill="#F8AB06"/>
<path d="M326.44 23.23C276.25 23.23 229.34 38.1 189.48 63.91C171.42 75.57 154.82 89.47 139.98 105.26C136.53 108.93 133.15 112.74 129.9 116.62C125.84 121.45 121.94 126.42 118.22 131.56C115.18 135.7 112.24 139.95 109.47 144.29C101.49 156.58 94.4503 169.59 88.4303 183.2C72.6203 218.86 63.7803 258.64 63.7803 300.62C63.7803 453.84 181.37 578.02 326.43 578.02C366.34 578.02 404.16 568.63 438.03 551.79C450.91 545.4 463.22 537.94 474.85 529.49C478.95 526.54 482.97 523.45 486.89 520.22C491.74 516.29 496.45 512.16 501.01 507.86C504.69 504.42 508.25 500.87 511.72 497.2C526.65 481.52 539.79 463.95 550.8 444.88C575.09 402.85 589.07 353.46 589.07 300.63C589.07 147.43 471.48 23.23 326.44 23.23ZM474.73 458.17C471.28 461.91 467.74 465.51 464.09 468.93C459.54 473.25 454.8 477.36 449.91 481.22C445.92 484.38 441.81 487.4 437.6 490.23C425.54 498.43 412.66 505.31 399.09 510.72C376.47 519.76 352.01 524.71 326.46 524.71C211.28 524.71 117.93 424.39 117.93 300.63C117.93 274.68 122.03 249.75 129.61 226.59C134.37 211.91 140.52 197.92 147.92 184.82C150.49 180.27 153.22 175.78 156.06 171.44C159.58 166.12 163.3 160.94 167.24 155.97C170.37 151.97 173.64 148.09 177.07 144.35C191.66 128.2 208.53 114.43 227.11 103.6C256.65 86.36 290.5 76.58 326.46 76.58C441.62 76.58 534.97 176.9 534.97 300.64C534.97 337.77 526.56 372.78 511.68 403.61C501.96 423.8 489.47 442.18 474.74 458.18L474.73 458.17Z" fill="#FEF8E1"/>
<path d="M602.29 292.5C602.22 290.22 602.15 287.95 602.04 285.67C595.23 136.47 486.66 16.17 349.62 3.88C333.86 1.32 317.69 0 301.21 0C217.33 0 141.47 34.22 86.8597 89.42L86.6597 89.63C56.6897 120 33.1296 156.68 18.1996 197.5L18.1797 197.55L64.4297 206.91C55.3697 236.39 50.4697 267.9 50.4697 300.63C50.4697 465.09 174.04 598.43 326.45 598.43C334.25 598.43 341.99 598.08 349.63 597.38C386.09 594.1 420.55 583.18 451.6 566.11C464.09 559.26 476 551.4 487.3 542.62C491.29 539.55 495.21 536.32 499.05 533C503.76 528.93 508.34 524.68 512.81 520.27C516.4 516.74 519.89 513.09 523.27 509.35C537.86 493.34 550.78 475.57 561.72 456.36C585.26 415.05 599.72 367.03 602.06 315.59C602.17 313.31 602.24 311.04 602.31 308.76C602.4 306.06 602.42 303.35 602.42 300.63C602.42 297.91 602.4 295.19 602.31 292.5H602.29ZM139.99 105.27L177.06 144.35C173.63 148.09 170.36 151.97 167.23 155.97L129.91 116.64C133.16 112.76 136.54 108.95 139.99 105.28V105.27ZM118.23 131.57L156.04 171.44C153.2 175.78 150.47 180.27 147.9 184.82L109.48 144.3C112.25 139.96 115.19 135.7 118.23 131.57ZM326.44 578.03C181.38 578.03 63.7897 453.85 63.7897 300.63C63.7897 258.65 72.6296 218.87 88.4396 183.21L129.59 226.59C122.01 249.75 117.91 274.68 117.91 300.63C117.91 424.39 211.26 524.71 326.44 524.71C351.99 524.71 376.45 519.76 399.07 510.72L438.03 551.8C404.16 568.64 366.35 578.03 326.43 578.03H326.44ZM474.86 529.5L437.59 490.24C441.81 487.41 445.91 484.39 449.9 481.23L486.9 520.24C482.98 523.47 478.96 526.56 474.86 529.51V529.5ZM501.02 507.87L464.08 468.93C467.73 465.51 471.27 461.91 474.72 458.17L511.72 497.2C508.25 500.87 504.68 504.43 501.01 507.86L501.02 507.87ZM550.81 444.88L511.66 403.6C526.54 372.77 534.95 337.76 534.95 300.63C534.95 176.89 441.6 76.57 326.44 76.57C290.47 76.57 256.63 86.35 227.09 103.59L189.48 63.91C229.35 38.1 276.25 23.23 326.44 23.23C471.48 23.23 589.07 147.43 589.07 300.63C589.07 353.46 575.09 402.85 550.8 444.88H550.81Z" fill="#FFD428"/>
</svg>
